<svg xmlns="http://www.w3.org/2000/svg" viewBox="0 0 360 520">
  <defs><linearGradient id="g" x2="0" y2="1"><stop stop-color="#2b2140"/><stop offset="1" stop-color="#120d1d"/></linearGradient></defs>
  <rect width="360" height="520" rx="24" fill="url(#g)"/>
  <rect x="48" y="35" width="264" height="450" rx="16" fill="#1f1a28" stroke="#927ab7" stroke-width="5"/>
  <g fill="#352b44" stroke="#755a9c" stroke-width="2">
    <rect x="70" y="65" width="220" height="62" rx="8"/><rect x="70" y="145" width="220" height="62" rx="8"/>
    <rect x="70" y="225" width="220" height="62" rx="8"/><rect x="70" y="305" width="220" height="62" rx="8"/>
    <rect x="70" y="385" width="220" height="62" rx="8"/>
  </g>
  <g fill="#6de0a3"><circle cx="95" cy="96" r="7"/><circle cx="95" cy="176" r="7"/><circle cx="95" cy="256" r="7"/><circle cx="95" cy="336" r="7"/><circle cx="95" cy="416" r="7"/></g>
  <g stroke="#b8a8cf" stroke-width="5" stroke-linecap="round"><path d="M120 96h140M120 176h140M120 256h140M120 336h140M120 416h140"/></g>
</svg>
